<svg width="143" height="33" viewBox="0 0 143 33" fill="none" xmlns="http://www.w3.org/2000/svg">
<path d="M29.7773 26V6.09375H35.9023C37.6523 6.09375 39.2155 6.49023 40.5918 7.2832C41.9772 8.06706 43.0573 9.18815 43.832 10.6465C44.6068 12.0957 44.9941 13.7454 44.9941 15.5957V16.5117C44.9941 18.362 44.6113 20.0072 43.8457 21.4473C43.0892 22.8874 42.0182 24.0039 40.6328 24.7969C39.2474 25.5898 37.6842 25.9909 35.9434 26H29.7773ZM33.8789 9.41602V22.7051H35.8613C37.4655 22.7051 38.6914 22.181 39.5391 21.1328C40.3867 20.0846 40.8197 18.5853 40.8379 16.6348V15.582C40.8379 13.5586 40.4186 12.0273 39.5801 10.9883C38.7415 9.9401 37.5156 9.41602 35.9023 9.41602H33.8789ZM54.5371 26.2734C52.3678 26.2734 50.5996 25.6081 49.2324 24.2773C47.8743 22.9466 47.1953 21.1738 47.1953 18.959V18.5762C47.1953 17.0905 47.4824 15.7643 48.0566 14.5977C48.6309 13.4219 49.4421 12.5195 50.4902 11.8906C51.5475 11.2526 52.7507 10.9336 54.0996 10.9336C56.123 10.9336 57.7135 11.5716 58.8711 12.8477C60.0378 14.1237 60.6211 15.9329 60.6211 18.2754V19.8887H51.2012C51.3288 20.8548 51.7116 21.6296 52.3496 22.2129C52.9967 22.7962 53.8125 23.0879 54.7969 23.0879C56.319 23.0879 57.5085 22.5365 58.3652 21.4336L60.3066 23.6074C59.7142 24.446 58.9121 25.1022 57.9004 25.5762C56.8887 26.041 55.7676 26.2734 54.5371 26.2734ZM54.0859 14.1328C53.3021 14.1328 52.6641 14.3971 52.1719 14.9258C51.6888 15.4544 51.3789 16.2109 51.2422 17.1953H56.7383V16.8809C56.7201 16.0059 56.4831 15.3314 56.0273 14.8574C55.5716 14.3743 54.9245 14.1328 54.0859 14.1328ZM68.2227 21.1738L70.9707 11.207H75.0996L70.1094 26H66.3359L61.3457 11.207H65.4746L68.2227 21.1738Z" fill="#10EAEA"/>
<path d="M87.4316 20.7773C87.4316 20.0026 87.1582 19.4102 86.6113 19C86.0645 18.5807 85.0801 18.1432 83.6582 17.6875C82.2363 17.2227 81.1107 16.7669 80.2812 16.3203C78.0208 15.099 76.8906 13.4538 76.8906 11.3848C76.8906 10.3092 77.1914 9.35221 77.793 8.51367C78.4036 7.66602 79.2741 7.00521 80.4043 6.53125C81.5436 6.05729 82.8197 5.82031 84.2324 5.82031C85.6543 5.82031 86.9212 6.08008 88.0332 6.59961C89.1452 7.11003 90.0065 7.83464 90.6172 8.77344C91.237 9.71224 91.5469 10.7786 91.5469 11.9727H87.4453C87.4453 11.0612 87.1582 10.3548 86.584 9.85352C86.0098 9.3431 85.2031 9.08789 84.1641 9.08789C83.1615 9.08789 82.3822 9.30208 81.8262 9.73047C81.2702 10.1497 80.9922 10.7057 80.9922 11.3984C80.9922 12.0456 81.3158 12.5879 81.9629 13.0254C82.6191 13.4629 83.5807 13.873 84.8477 14.2559C87.181 14.9577 88.8809 15.8281 89.9473 16.8672C91.0137 17.9062 91.5469 19.2005 91.5469 20.75C91.5469 22.4727 90.8952 23.8262 89.5918 24.8105C88.2884 25.7858 86.5339 26.2734 84.3281 26.2734C82.7969 26.2734 81.4023 25.9954 80.1445 25.4395C78.8867 24.8743 77.9251 24.1042 77.2598 23.1289C76.6035 22.1536 76.2754 21.0234 76.2754 19.7383H80.3906C80.3906 21.9349 81.7031 23.0332 84.3281 23.0332C85.3034 23.0332 86.0645 22.8372 86.6113 22.4453C87.1582 22.0443 87.4316 21.4883 87.4316 20.7773ZM98.8066 7.57031V11.207H101.336V14.1055H98.8066V21.4883C98.8066 22.0352 98.9115 22.4271 99.1211 22.6641C99.3307 22.901 99.7318 23.0195 100.324 23.0195C100.762 23.0195 101.149 22.9876 101.486 22.9238V25.918C100.712 26.1549 99.9141 26.2734 99.0938 26.2734C96.3229 26.2734 94.9102 24.8743 94.8555 22.0762V14.1055H92.6953V11.207H94.8555V7.57031H98.8066ZM102.512 18.4668C102.512 16.9993 102.794 15.6914 103.359 14.543C103.924 13.3945 104.736 12.5059 105.793 11.877C106.859 11.248 108.094 10.9336 109.498 10.9336C111.494 10.9336 113.121 11.5443 114.379 12.7656C115.646 13.987 116.352 15.6458 116.498 17.7422L116.525 18.7539C116.525 21.0234 115.892 22.8464 114.625 24.2227C113.358 25.5898 111.658 26.2734 109.525 26.2734C107.393 26.2734 105.688 25.5898 104.412 24.2227C103.145 22.8555 102.512 20.9961 102.512 18.6445V18.4668ZM106.463 18.7539C106.463 20.1576 106.727 21.2331 107.256 21.9805C107.785 22.7188 108.541 23.0879 109.525 23.0879C110.482 23.0879 111.23 22.7233 111.768 21.9941C112.305 21.2559 112.574 20.0801 112.574 18.4668C112.574 17.0905 112.305 16.0241 111.768 15.2676C111.23 14.5111 110.473 14.1328 109.498 14.1328C108.532 14.1328 107.785 14.5111 107.256 15.2676C106.727 16.015 106.463 17.1771 106.463 18.7539ZM127.271 14.9121C126.734 14.8392 126.26 14.8027 125.85 14.8027C124.355 14.8027 123.375 15.3086 122.91 16.3203V26H118.959V11.207H122.691L122.801 12.9707C123.594 11.6126 124.692 10.9336 126.096 10.9336C126.533 10.9336 126.943 10.9928 127.326 11.1113L127.271 14.9121ZM135.721 26.2734C133.551 26.2734 131.783 25.6081 130.416 24.2773C129.058 22.9466 128.379 21.1738 128.379 18.959V18.5762C128.379 17.0905 128.666 15.7643 129.24 14.5977C129.814 13.4219 130.626 12.5195 131.674 11.8906C132.731 11.2526 133.934 10.9336 135.283 10.9336C137.307 10.9336 138.897 11.5716 140.055 12.8477C141.221 14.1237 141.805 15.9329 141.805 18.2754V19.8887H132.385C132.512 20.8548 132.895 21.6296 133.533 22.2129C134.18 22.7962 134.996 23.0879 135.98 23.0879C137.503 23.0879 138.692 22.5365 139.549 21.4336L141.49 23.6074C140.898 24.446 140.096 25.1022 139.084 25.5762C138.072 26.041 136.951 26.2734 135.721 26.2734ZM135.27 14.1328C134.486 14.1328 133.848 14.3971 133.355 14.9258C132.872 15.4544 132.562 16.2109 132.426 17.1953H137.922V16.8809C137.904 16.0059 137.667 15.3314 137.211 14.8574C136.755 14.3743 136.108 14.1328 135.27 14.1328Z" fill="white"/>
<g clip-path="url(#clip0)">
<path d="M22.65 19.39L12 27.13L1.35002 19.39C1.20725 19.285 1.10134 19.1375 1.04746 18.9687C0.993572 18.7998 0.99447 18.6183 1.05002 18.45L2.27002 14.67L4.71002 7.15999C4.73369 7.0988 4.77136 7.044 4.82002 6.99999C4.89926 6.92761 5.0027 6.88748 5.11002 6.88748C5.21734 6.88748 5.32078 6.92761 5.40002 6.99999C5.45141 7.04966 5.48927 7.11161 5.51002 7.17999L7.95002 14.67H16.05L18.49 7.15999C18.5137 7.0988 18.5514 7.044 18.6 6.99999C18.6793 6.92761 18.7827 6.88748 18.89 6.88748C18.9973 6.88748 19.1008 6.92761 19.18 6.99999C19.2314 7.04966 19.2693 7.11161 19.29 7.17999L21.73 14.69L23 18.45C23.0505 18.6235 23.0438 18.8086 22.9807 18.978C22.9177 19.1473 22.8017 19.2918 22.65 19.39V19.39Z" stroke="#10EAEA" stroke-width="2" stroke-linecap="round" stroke-linejoin="round"/>
</g>
<defs>
<clipPath id="clip0">
<rect width="24" height="24" fill="white" transform="translate(0 5)"/>
</clipPath>
</defs>
</svg>
