<svg width="13" height="17" viewBox="0 0 13 17" fill="none" xmlns="http://www.w3.org/2000/svg">
<path d="M3.66669 4.25V2.83333C3.66669 2.45761 3.81594 2.09727 4.08162 1.8316C4.3473 1.56592 4.70763 1.41666 5.08335 1.41666H7.91669C8.29241 1.41666 8.65275 1.56592 8.91842 1.8316C9.1841 2.09727 9.33335 2.45761 9.33335 2.83333V4.25M11.4584 4.25V14.1667C11.4584 14.5424 11.3091 14.9027 11.0434 15.1684C10.7777 15.4341 10.4174 15.5833 10.0417 15.5833H2.95835C2.58263 15.5833 2.2223 15.4341 1.95662 15.1684C1.69094 14.9027 1.54169 14.5424 1.54169 14.1667V4.25H11.4584Z" stroke="#F1F1F1" stroke-width="2" stroke-linecap="round" stroke-linejoin="round"/>
</svg>
