<svg width="132" height="22" viewBox="0 0 132 22" fill="none" xmlns="http://www.w3.org/2000/svg">
<path d="M0.777344 21V1.09375H6.90234C8.65234 1.09375 10.2155 1.49023 11.5918 2.2832C12.9772 3.06706 14.0573 4.18815 14.832 5.64648C15.6068 7.0957 15.9941 8.74544 15.9941 10.5957V11.5117C15.9941 13.362 15.6113 15.0072 14.8457 16.4473C14.0892 17.8874 13.0182 19.0039 11.6328 19.7969C10.2474 20.5898 8.68424 20.9909 6.94336 21H0.777344ZM4.87891 4.41602V17.7051H6.86133C8.46549 17.7051 9.69141 17.181 10.5391 16.1328C11.3867 15.0846 11.8197 13.5853 11.8379 11.6348V10.582C11.8379 8.55859 11.4186 7.02734 10.5801 5.98828C9.74154 4.9401 8.51562 4.41602 6.90234 4.41602H4.87891ZM25.5371 21.2734C23.3678 21.2734 21.5996 20.6081 20.2324 19.2773C18.8743 17.9466 18.1953 16.1738 18.1953 13.959V13.5762C18.1953 12.0905 18.4824 10.7643 19.0566 9.59766C19.6309 8.42188 20.4421 7.51953 21.4902 6.89062C22.5475 6.2526 23.7507 5.93359 25.0996 5.93359C27.123 5.93359 28.7135 6.57161 29.8711 7.84766C31.0378 9.1237 31.6211 10.9329 31.6211 13.2754V14.8887H22.2012C22.3288 15.8548 22.7116 16.6296 23.3496 17.2129C23.9967 17.7962 24.8125 18.0879 25.7969 18.0879C27.319 18.0879 28.5085 17.5365 29.3652 16.4336L31.3066 18.6074C30.7142 19.446 29.9121 20.1022 28.9004 20.5762C27.8887 21.041 26.7676 21.2734 25.5371 21.2734ZM25.0859 9.13281C24.3021 9.13281 23.6641 9.39714 23.1719 9.92578C22.6888 10.4544 22.3789 11.2109 22.2422 12.1953H27.7383V11.8809C27.7201 11.0059 27.4831 10.3314 27.0273 9.85742C26.5716 9.37435 25.9245 9.13281 25.0859 9.13281ZM39.2227 16.1738L41.9707 6.20703H46.0996L41.1094 21H37.3359L32.3457 6.20703H36.4746L39.2227 16.1738Z" fill="#EA10C7"/>
<path d="M58.4316 15.7773C58.4316 15.0026 58.1582 14.4102 57.6113 14C57.0645 13.5807 56.0801 13.1432 54.6582 12.6875C53.2363 12.2227 52.1107 11.7669 51.2812 11.3203C49.0208 10.099 47.8906 8.45378 47.8906 6.38477C47.8906 5.30924 48.1914 4.35221 48.793 3.51367C49.4036 2.66602 50.2741 2.00521 51.4043 1.53125C52.5436 1.05729 53.8197 0.820312 55.2324 0.820312C56.6543 0.820312 57.9212 1.08008 59.0332 1.59961C60.1452 2.11003 61.0065 2.83464 61.6172 3.77344C62.237 4.71224 62.5469 5.77865 62.5469 6.97266H58.4453C58.4453 6.0612 58.1582 5.35482 57.584 4.85352C57.0098 4.3431 56.2031 4.08789 55.1641 4.08789C54.1615 4.08789 53.3822 4.30208 52.8262 4.73047C52.2702 5.14974 51.9922 5.70573 51.9922 6.39844C51.9922 7.04557 52.3158 7.58789 52.9629 8.02539C53.6191 8.46289 54.5807 8.87305 55.8477 9.25586C58.181 9.95768 59.8809 10.8281 60.9473 11.8672C62.0137 12.9062 62.5469 14.2005 62.5469 15.75C62.5469 17.4727 61.8952 18.8262 60.5918 19.8105C59.2884 20.7858 57.5339 21.2734 55.3281 21.2734C53.7969 21.2734 52.4023 20.9954 51.1445 20.4395C49.8867 19.8743 48.9251 19.1042 48.2598 18.1289C47.6035 17.1536 47.2754 16.0234 47.2754 14.7383H51.3906C51.3906 16.9349 52.7031 18.0332 55.3281 18.0332C56.3034 18.0332 57.0645 17.8372 57.6113 17.4453C58.1582 17.0443 58.4316 16.4883 58.4316 15.7773ZM71.2285 18.0879C71.9577 18.0879 72.5501 17.8874 73.0059 17.4863C73.4616 17.0853 73.6986 16.5521 73.7168 15.8867H77.4219C77.4128 16.8893 77.1393 17.8099 76.6016 18.6484C76.0638 19.4779 75.3255 20.125 74.3867 20.5898C73.457 21.0456 72.4271 21.2734 71.2969 21.2734C69.1823 21.2734 67.5143 20.6035 66.293 19.2637C65.0716 17.9147 64.4609 16.0553 64.4609 13.6855V13.4258C64.4609 11.1471 65.0671 9.32878 66.2793 7.9707C67.4915 6.61263 69.1549 5.93359 71.2695 5.93359C73.1198 5.93359 74.6009 6.46224 75.7129 7.51953C76.834 8.56771 77.4036 9.9668 77.4219 11.7168H73.7168C73.6986 10.9512 73.4616 10.3314 73.0059 9.85742C72.5501 9.37435 71.9486 9.13281 71.2012 9.13281C70.2806 9.13281 69.5833 9.47005 69.1094 10.1445C68.6445 10.8099 68.4121 11.8945 68.4121 13.3984V13.8086C68.4121 15.3307 68.6445 16.4245 69.1094 17.0898C69.5742 17.7552 70.2806 18.0879 71.2285 18.0879ZM83.5332 7.82031C84.5814 6.5625 85.8984 5.93359 87.4844 5.93359C90.6927 5.93359 92.3197 7.79753 92.3652 11.5254V21H88.4141V11.6348C88.4141 10.7871 88.2318 10.1628 87.8672 9.76172C87.5026 9.35156 86.8965 9.14648 86.0488 9.14648C84.8913 9.14648 84.0527 9.5931 83.5332 10.4863V21H79.582V0H83.5332V7.82031ZM94.7305 13.4668C94.7305 11.9993 95.013 10.6914 95.5781 9.54297C96.1432 8.39453 96.9544 7.50586 98.0117 6.87695C99.0781 6.24805 100.313 5.93359 101.717 5.93359C103.713 5.93359 105.34 6.54427 106.598 7.76562C107.865 8.98698 108.571 10.6458 108.717 12.7422L108.744 13.7539C108.744 16.0234 108.111 17.8464 106.844 19.2227C105.577 20.5898 103.877 21.2734 101.744 21.2734C99.6113 21.2734 97.9069 20.5898 96.6309 19.2227C95.3639 17.8555 94.7305 15.9961 94.7305 13.6445V13.4668ZM98.6816 13.7539C98.6816 15.1576 98.946 16.2331 99.4746 16.9805C100.003 17.7188 100.76 18.0879 101.744 18.0879C102.701 18.0879 103.449 17.7233 103.986 16.9941C104.524 16.2559 104.793 15.0801 104.793 13.4668C104.793 12.0905 104.524 11.0241 103.986 10.2676C103.449 9.51107 102.692 9.13281 101.717 9.13281C100.751 9.13281 100.003 9.51107 99.4746 10.2676C98.946 11.015 98.6816 12.1771 98.6816 13.7539ZM110.562 13.4668C110.562 11.9993 110.845 10.6914 111.41 9.54297C111.975 8.39453 112.786 7.50586 113.844 6.87695C114.91 6.24805 116.145 5.93359 117.549 5.93359C119.545 5.93359 121.172 6.54427 122.43 7.76562C123.697 8.98698 124.403 10.6458 124.549 12.7422L124.576 13.7539C124.576 16.0234 123.943 17.8464 122.676 19.2227C121.409 20.5898 119.709 21.2734 117.576 21.2734C115.443 21.2734 113.739 20.5898 112.463 19.2227C111.196 17.8555 110.562 15.9961 110.562 13.6445V13.4668ZM114.514 13.7539C114.514 15.1576 114.778 16.2331 115.307 16.9805C115.835 17.7188 116.592 18.0879 117.576 18.0879C118.533 18.0879 119.281 17.7233 119.818 16.9941C120.356 16.2559 120.625 15.0801 120.625 13.4668C120.625 12.0905 120.356 11.0241 119.818 10.2676C119.281 9.51107 118.524 9.13281 117.549 9.13281C116.583 9.13281 115.835 9.51107 115.307 10.2676C114.778 11.015 114.514 12.1771 114.514 13.7539ZM131.18 21H127.215V0H131.18V21Z" fill="white"/>
</svg>
